<svg
    xmlns="http://www.w3.org/2000/svg"
    xmlns:xlink="http://www.w3.org/1999/xlink"
    viewBox="0 0 27.55 39.45"
>
    <defs>
        <style>
            .cls-1 {
                isolation: isolate;
            }
            .cls-2 {
                fill: url(#linear-gradient);
            }
            .cls-3 {
                fill: url(#linear-gradient-2);
            }
            .cls-4 {
                fill: url(#linear-gradient-3);
            }
            .cls-5 {
                fill: url(#linear-gradient-4);
            }
            .cls-6 {
                fill: url(#linear-gradient-5);
            }
            .cls-7 {
                opacity: 0.5;
                fill: url(#linear-gradient-6);
            }
            .cls-10,
            .cls-11,
            .cls-12,
            .cls-14,
            .cls-7,
            .cls-8,
            .cls-9 {
                mix-blend-mode: overlay;
            }
            .cls-8 {
                opacity: 0.45;
                fill: url(#linear-gradient-7);
            }
            .cls-9 {
                opacity: 0.67;
                fill: url(#linear-gradient-8);
            }
            .cls-10 {
                opacity: 0.62;
                fill: url(#linear-gradient-9);
            }
            .cls-11 {
                opacity: 0.43;
                fill: url(#linear-gradient-10);
            }
            .cls-12 {
                opacity: 0.3;
            }
            .cls-13 {
                fill: #fff;
            }
            .cls-14 {
                opacity: 0.49;
            }
        </style>

        <linearGradient
            id="linear-gradient"
            x1="25.3"
            y1="0.78"
            x2="25.8"
            y2="26.1"
            gradientUnits="userSpaceOnUse"
        >
            <stop offset="0.03" stop-color="#f4b936" />
            <stop offset="0.32" stop-color="#ec6443" />
            <stop offset="0.73" stop-color="#b01a62" />
            <stop offset="1" stop-color="#4b174f" />
        </linearGradient>

        <linearGradient
            id="linear-gradient-2"
            x1="9.13"
            y1="4.86"
            x2="26.27"
            y2="27.22"
            gradientUnits="userSpaceOnUse"
        >
            <stop offset="0" stop-color="#e40076" />
            <stop offset="1" stop-color="#5a125b" />
        </linearGradient>

        <linearGradient
            id="linear-gradient-3"
            x1="2.91"
            y1="22.19"
            x2="25.27"
            y2="26.88"
            gradientUnits="userSpaceOnUse"
        >
            <stop offset="0" stop-color="#e51a84" />
            <stop offset="0.48" stop-color="#b90063" />
            <stop offset="1" stop-color="#730d5c" />
        </linearGradient>

        <linearGradient
            id="linear-gradient-4"
            x1="10.85"
            y1="31.44"
            x2="25.6"
            y2="31.44"
            gradientUnits="userSpaceOnUse"
        >
            <stop offset="0" stop-color="#00b8eb" />
            <stop offset="0.53" stop-color="#3c829f" />
            <stop offset="1" stop-color="#006298" />
        </linearGradient>

        <linearGradient
            id="linear-gradient-5"
            x1="19.46"
            y1="39.11"
            x2="27.3"
            y2="29.55"
            gradientUnits="userSpaceOnUse"
        >
            <stop offset="0" stop-color="#005e59" />
            <stop offset="0.53" stop-color="#4491b2" />
            <stop offset="1" stop-color="#305396" />
        </linearGradient>

        <linearGradient
            id="linear-gradient-6"
            x1="19.15"
            y1="16.02"
            x2="13.79"
            y2="16.59"
            gradientUnits="userSpaceOnUse"
        >
            <stop offset="0" stop-color="#fff" stop-opacity="0" />
            <stop offset="1" stop-color="#fff" />
        </linearGradient>

        <linearGradient
            id="linear-gradient-7"
            x1="27.64"
            y1="19.55"
            x2="27.07"
            y2="4.63"
            gradientUnits="userSpaceOnUse"
        >
            <stop offset="0" stop-color="#fff" stop-opacity="0" />
            <stop offset="0.79" stop-color="#fff" stop-opacity="0.79" />
            <stop offset="1" stop-color="#fff" />
        </linearGradient>

        <linearGradient
            id="linear-gradient-8"
            x1="14.87"
            y1="24.15"
            x2="12.44"
            y2="26.93"
            xlink:href="#linear-gradient-6"
        />

        <linearGradient
            id="linear-gradient-9"
            x1="14.03"
            y1="34.86"
            x2="25.16"
            y2="29.89"
            xlink:href="#linear-gradient-6"
        />

        <linearGradient
            id="linear-gradient-10"
            x1="18.36"
            y1="39.84"
            x2="26.71"
            y2="30.67"
            xlink:href="#linear-gradient-6"
        />
    </defs>

    <g class="cls-1">
        <g id="Layer_2" data-name="Layer 2">
            <path
                class="cls-2"
                d="M29.3,13.44a29.61,29.61,0,0,1-2.12,8.89,22.8,22.8,0,0,0-.69,2.27,7.23,7.23,0,0,0-.32,2,.52.52,0,0,0,0-.11,27.58,27.58,0,0,0-1.94-5.11,36.71,36.71,0,0,1-1.62-3.76,18.27,18.27,0,0,1-.76-4c0-.4,0-1-.06-1.4a12.12,12.12,0,0,1,.74-4.87c.59-1.71,1.47-3.31,2-5,.15-.51.29-1,.42-1.54a1.52,1.52,0,0,0,.13-.55v0a10.17,10.17,0,0,0,.53,1.49,15.8,15.8,0,0,0,.6,1.48l.08.16a37.66,37.66,0,0,1,2.29,4.8A15.32,15.32,0,0,1,29.3,13.44Z"
                transform="translate(-1.75 -0.28)"
            />
            <path
                class="cls-3"
                d="M25.76,26.72c-.19-.26-1-.35-1.28-.47a29,29,0,0,1-3.64-1.76A17.49,17.49,0,0,1,14,17.83a14.71,14.71,0,0,1-1.55-4.37c-.27-1.46-.53-2.9-.87-4.35A7.17,7.17,0,0,0,9.93,5.6a.3.3,0,0,0-.08-.08c.25.23,1.53.24,1.89.34a13.16,13.16,0,0,1,4,1.85,14.08,14.08,0,0,1,5.31,7c.3.87.51,1.76.76,2.63.9,3.19,3,6.14,3.88,9.31Z"
                transform="translate(-1.75 -0.28)"
            />
            <path
                class="cls-4"
                d="M25.58,27.16l-.1,0c-.52.21-1.09.34-1.63.5a33.55,33.55,0,0,1-3.29.8,16.71,16.71,0,0,1-4.84.14,28.75,28.75,0,0,1-7.6-2.23c-1.26-.54-2.49-1.3-3.77-1.72A9.59,9.59,0,0,0,1.75,24l.52,0c2.25-.23,4-1.66,6.1-2.5,1.85-.76,4.52-1.39,6.4-.45A13.29,13.29,0,0,1,17,22.52c.69.54,1.4,1.05,2.12,1.54a18.62,18.62,0,0,0,4.23,2.29c.45.16.91.29,1.34.49A3.11,3.11,0,0,0,25.58,27.16Z"
                transform="translate(-1.75 -0.28)"
            />
            <path
                class="cls-5"
                d="M25.6,27.58a4,4,0,0,0-.58,1c-.31.5-.6,1-.88,1.51a11,11,0,0,1-2.24,3.05,8.06,8.06,0,0,1-5.78,2,23.21,23.21,0,0,0-3.43-.27c-.29,0-1.73.18-1.84.48l.06-.15a8.87,8.87,0,0,1,5.3-5.31,16.7,16.7,0,0,1,3.66-.78A25,25,0,0,0,23,28.51a14.69,14.69,0,0,0,2.63-.93Z"
                transform="translate(-1.75 -0.28)"
            />
            <path
                class="cls-6"
                d="M24.81,36a6.94,6.94,0,0,1-2.53,1.86,6,6,0,0,1-1.5.44c-.26,0-.5,0-.76.07s-.6.12-.9.2-1.86.55-2,.9a.93.93,0,0,1,.05-.1,12.5,12.5,0,0,1,1-2,6.89,6.89,0,0,1,1.82-2c.7-.51,1.45-1,2.11-1.52l.32-.28a11.89,11.89,0,0,0,2-2.62,25,25,0,0,0,1.5-3,.67.67,0,0,0,0,.34c0,.13.06.26.09.38.08.31.16.62.23.93a10.44,10.44,0,0,1,.25,1.84A6.91,6.91,0,0,1,24.81,36Z"
                transform="translate(-1.75 -0.28)"
            />
            <path
                class="cls-7"
                d="M25.76,26.72c-.19-.26-1-.35-1.28-.47a29,29,0,0,1-3.64-1.76A17.49,17.49,0,0,1,14,17.83a14.71,14.71,0,0,1-1.55-4.37c-.27-1.46-.53-2.9-.87-4.35A7.17,7.17,0,0,0,9.93,5.6a8.37,8.37,0,0,1,1.66.85A10.68,10.68,0,0,1,14,8.74c.23.3.45.61.65.92,1.75,2.68,2.65,5.79,4.31,8.51A50.58,50.58,0,0,0,25,25.89l.7.77Z"
                transform="translate(-1.75 -0.28)"
            />
            <path
                class="cls-8"
                d="M29.3,13.44a29.61,29.61,0,0,1-2.12,8.89,22.8,22.8,0,0,0-.69,2.27,7.23,7.23,0,0,0-.32,2,.52.52,0,0,0,0-.11c-.21-3.47,0-8.3-.39-11.41a94.1,94.1,0,0,1-.54-10.41c0-1.46-.09-2.92-.14-4.38a10.17,10.17,0,0,0,.53,1.49,15.8,15.8,0,0,0,.6,1.48l.08.16a37.66,37.66,0,0,1,2.29,4.8A15.32,15.32,0,0,1,29.3,13.44Z"
                transform="translate(-1.75 -0.28)"
            />
            <path
                class="cls-9"
                d="M25.48,27.2c-.52.21-1.09.34-1.63.5a33.55,33.55,0,0,1-3.29.8,16.71,16.71,0,0,1-4.84.14,28.75,28.75,0,0,1-7.6-2.23c-1.26-.54-2.49-1.3-3.77-1.72A9.59,9.59,0,0,0,1.75,24l.52,0A10.83,10.83,0,0,0,3.78,24c1.15,0,2.29-.22,3.43-.34A17.77,17.77,0,0,1,16.63,25a20.25,20.25,0,0,0,4.75,1.52c.83.16,1.67.28,2.52.37C24.43,27,25,27.11,25.48,27.2Z"
                transform="translate(-1.75 -0.28)"
            />
            <path
                class="cls-10"
                d="M25.6,27.58a4,4,0,0,0-.58,1c-.31.5-.6,1-.88,1.51a11,11,0,0,1-2.24,3.05,8.06,8.06,0,0,1-5.78,2,23.21,23.21,0,0,0-3.43-.27c-.29,0-1.73.18-1.84.48l.06-.15a8.16,8.16,0,0,1,3.32-2.54,13.53,13.53,0,0,1,3-.7C20.19,31.55,22.7,29.78,25,28c.2-.14.39-.3.58-.46Z"
                transform="translate(-1.75 -0.28)"
            />
            <path
                class="cls-11"
                d="M24.81,36a6.94,6.94,0,0,1-2.53,1.86,6,6,0,0,1-1.5.44c-.26,0-.5,0-.76.07s-.6.12-.9.2-1.86.55-2,.9a.93.93,0,0,1,.05-.1,13.36,13.36,0,0,1,.91-1.14c1.36-1.48,3.61-1.92,5.05-3.31,1.76-1.7,2.24-4.25,2.72-6.64,0,.13.06.26.09.38.08.31.16.62.23.93a10.44,10.44,0,0,1,.25,1.84A6.91,6.91,0,0,1,24.81,36Z"
                transform="translate(-1.75 -0.28)"
            />
            <g class="cls-12">
                <path
                    class="cls-13"
                    d="M25.76,15.13c-.29-2.45-.44-4.92-.51-7.39,0-1.23,0-2.47,0-3.7s-.1-2.46-.12-3.7c.12,1.23.22,2.46.31,3.7s0,2.46.08,3.7C25.54,10.2,25.68,12.66,25.76,15.13Z"
                    transform="translate(-1.75 -0.28)"
                />
            </g>
            <g class="cls-14">
                <path
                    class="cls-13"
                    d="M9.85,5.52a8.49,8.49,0,0,1,3.81,2.75,19.53,19.53,0,0,1,2.49,4c.67,1.43,1.25,2.9,2,4.31a18,18,0,0,0,1.18,2l1.28,2a30.77,30.77,0,0,1-2.61-4c-.73-1.4-1.34-2.86-2-4.28a19.54,19.54,0,0,0-2.39-4A9.36,9.36,0,0,0,9.85,5.52Z"
                    transform="translate(-1.75 -0.28)"
                />
            </g>
            <g class="cls-12">
                <path
                    class="cls-13"
                    d="M1.75,24l.52-.07h0c.66,0,1.31,0,2-.06s1.3-.17,2-.27a23,23,0,0,1,4-.26,17,17,0,0,1,4,.61,15.1,15.1,0,0,1,1.88.7l1.77.9A32.68,32.68,0,0,0,14,24.29a19.44,19.44,0,0,0-3.88-.49A27,27,0,0,0,6.25,24c-.66.05-1.32.11-2,.13a16.64,16.64,0,0,1-2-.14H1.75Z"
                    transform="translate(-1.75 -0.28)"
                />
            </g>
            <g class="cls-12">
                <path
                    class="cls-13"
                    d="M10.85,35.39l.05-.16h0a8.59,8.59,0,0,1,2-2,7.89,7.89,0,0,1,2.63-1.09c.92-.22,1.87-.26,2.77-.47A13.09,13.09,0,0,0,21,30.79a10.57,10.57,0,0,1-2.59,1.1c-.93.25-1.87.28-2.77.53a8,8,0,0,0-2.57,1,10.48,10.48,0,0,0-2.12,1.82h0Z"
                    transform="translate(-1.75 -0.28)"
                />
            </g>
            <g class="cls-12">
                <path
                    class="cls-13"
                    d="M17,39.72l0-.1h0a7.77,7.77,0,0,1,1.71-1.95A18.62,18.62,0,0,1,21,36.37,7.93,7.93,0,0,0,23.07,35a7.85,7.85,0,0,0,1.46-2.09,6.68,6.68,0,0,1-1.32,2.22,7.86,7.86,0,0,1-2.12,1.52,19.5,19.5,0,0,0-2.25,1.23A9.58,9.58,0,0,0,17,39.62h0Z"
                    transform="translate(-1.75 -0.28)"
                />
            </g>
        </g>
    </g>
</svg>
