<svg width="175"  viewBox="0 0 175 115" fill="none" xmlns="http://www.w3.org/2000/svg">
<rect width="175" height="115" fill="#F1F2F4"/>
<rect x="20.5" y="27.5" width="134" height="59" rx="2.5" fill="white" stroke="#6B21A8"/>
<rect x="79" y="42" width="17" height="4" rx="2" fill="#CCACF9"/>
<rect x="75" y="50" width="25" height="3" rx="1.5" fill="#EFE5FD"/>
<rect x="75" y="56" width="25" height="3" rx="1.5" fill="#EFE5FD"/>
<rect x="75" y="62" width="25" height="3" rx="1.5" fill="#EFE5FD"/>
<rect x="81" y="68" width="14" height="3" rx="1.5" fill="#EFE5FD"/>
<rect x="120" y="42" width="17" height="4" rx="2" fill="#CCACF9"/>
<rect x="116" y="50" width="25" height="3" rx="1.5" fill="#EFE5FD"/>
<rect x="116" y="56" width="25" height="3" rx="1.5" fill="#EFE5FD"/>
<rect x="116" y="62" width="25" height="3" rx="1.5" fill="#EFE5FD"/>
<rect x="122" y="68" width="14" height="3" rx="1.5" fill="#EFE5FD"/>
<rect x="38" y="42" width="17" height="4" rx="2" fill="#CCACF9"/>
<rect x="34" y="50" width="25" height="3" rx="1.5" fill="#EFE5FD"/>
<rect x="34" y="56" width="25" height="3" rx="1.5" fill="#EFE5FD"/>
<rect x="34" y="62" width="25" height="3" rx="1.5" fill="#EFE5FD"/>
<rect x="40" y="68" width="14" height="3" rx="1.5" fill="#EFE5FD"/>
</svg>
