<svg width="175"  viewBox="0 0 175 115" fill="none" xmlns="http://www.w3.org/2000/svg">
<rect width="175" height="115" fill="#F1F2F4"/>
<rect x="20.5" y="16.5" width="134" height="81" rx="2.5" fill="white" stroke="#6B21A8"/>
<rect x="32" y="61" width="17" height="4" rx="2" fill="#CCACF9"/>
<path d="M32 26.25H61C61.9665 26.25 62.75 27.0335 62.75 28V86C62.75 86.9665 61.9665 87.75 61 87.75H32C31.0335 87.75 30.25 86.9665 30.25 86V28C30.25 27.0335 31.0335 26.25 32 26.25Z" stroke="#EFE5FD" stroke-width="0.5"/>
<path d="M32 26.25H61C61.9665 26.25 62.75 27.0335 62.75 28V50.75H30.25V28C30.25 27.0335 31.0335 26.25 32 26.25Z" fill="#E0C5FF" stroke="#6B21A8" stroke-width="0.5"/>
<rect x="32" y="69" width="25" height="3" rx="1.5" fill="#EFE5FD"/>
<rect x="32" y="75" width="25" height="3" rx="1.5" fill="#EFE5FD"/>
<rect width="7" height="3" rx="1.5" transform="matrix(-1 0 0 1 39 82)" fill="#CCACF9"/>
<path d="M33.5705 56.5133L32.8092 56.9719C32.7755 56.9933 32.7404 57.0025 32.7037 56.9994C32.667 56.9964 32.6349 56.9841 32.6074 56.9627C32.5799 56.9413 32.5585 56.9146 32.5432 56.8824C32.5279 56.8502 32.5248 56.8143 32.534 56.7747L32.7358 55.9079L32.0616 55.3254C32.031 55.2979 32.012 55.2665 32.0044 55.2313C31.9968 55.1961 31.9991 55.1617 32.0112 55.1282C32.0234 55.0946 32.0417 55.0671 32.0662 55.0457C32.0907 55.0243 32.1243 55.0105 32.1671 55.0044L33.0568 54.9264L33.4008 54.1101C33.4161 54.0734 33.4398 54.0459 33.472 54.0275C33.5042 54.0092 33.537 54 33.5705 54C33.6041 54 33.637 54.0092 33.669 54.0275C33.7011 54.0459 33.7248 54.0734 33.7402 54.1101L34.0842 54.9264L34.9739 55.0044C35.0167 55.0105 35.0503 55.0243 35.0748 55.0457C35.0993 55.0671 35.1176 55.0946 35.1298 55.1282C35.1421 55.1619 35.1444 55.1963 35.1368 55.2315C35.1292 55.2667 35.1101 55.298 35.0794 55.3254L34.4052 55.9079L34.607 56.7747C34.6162 56.8144 34.6131 56.8504 34.5978 56.8826C34.5825 56.9147 34.5611 56.9415 34.5336 56.9627C34.5061 56.9841 34.474 56.9964 34.4373 56.9994C34.4006 57.0025 34.3655 56.9933 34.3318 56.9719L33.5705 56.5133Z" fill="#CCACF9"/>
<path d="M37.5705 56.5133L36.8092 56.9719C36.7755 56.9933 36.7404 57.0025 36.7037 56.9994C36.667 56.9964 36.6349 56.9841 36.6074 56.9627C36.5799 56.9413 36.5585 56.9146 36.5432 56.8824C36.5279 56.8502 36.5248 56.8143 36.534 56.7747L36.7358 55.9079L36.0616 55.3254C36.031 55.2979 36.012 55.2665 36.0044 55.2313C35.9968 55.1961 35.9991 55.1617 36.0112 55.1282C36.0234 55.0946 36.0417 55.0671 36.0662 55.0457C36.0907 55.0243 36.1243 55.0105 36.1671 55.0044L37.0568 54.9264L37.4008 54.1101C37.4161 54.0734 37.4398 54.0459 37.472 54.0275C37.5042 54.0092 37.537 54 37.5705 54C37.6041 54 37.637 54.0092 37.669 54.0275C37.7011 54.0459 37.7248 54.0734 37.7402 54.1101L38.0842 54.9264L38.9739 55.0044C39.0167 55.0105 39.0503 55.0243 39.0748 55.0457C39.0993 55.0671 39.1176 55.0946 39.1298 55.1282C39.1421 55.1619 39.1444 55.1963 39.1368 55.2315C39.1292 55.2667 39.1101 55.298 39.0794 55.3254L38.4052 55.9079L38.607 56.7747C38.6162 56.8144 38.6131 56.8504 38.5978 56.8826C38.5825 56.9147 38.5611 56.9415 38.5336 56.9627C38.5061 56.9841 38.474 56.9964 38.4373 56.9994C38.4006 57.0025 38.3655 56.9933 38.3318 56.9719L37.5705 56.5133Z" fill="#CCACF9"/>
<path d="M41.5705 56.5133L40.8092 56.9719C40.7755 56.9933 40.7404 57.0025 40.7037 56.9994C40.667 56.9964 40.6349 56.9841 40.6074 56.9627C40.5799 56.9413 40.5585 56.9146 40.5432 56.8824C40.5279 56.8502 40.5248 56.8143 40.534 56.7747L40.7358 55.9079L40.0616 55.3254C40.031 55.2979 40.012 55.2665 40.0044 55.2313C39.9968 55.1961 39.9991 55.1617 40.0112 55.1282C40.0234 55.0946 40.0417 55.0671 40.0662 55.0457C40.0907 55.0243 40.1243 55.0105 40.1671 55.0044L41.0568 54.9264L41.4008 54.1101C41.4161 54.0734 41.4398 54.0459 41.472 54.0275C41.5042 54.0092 41.537 54 41.5705 54C41.6041 54 41.637 54.0092 41.669 54.0275C41.7011 54.0459 41.7248 54.0734 41.7402 54.1101L42.0842 54.9264L42.9739 55.0044C43.0167 55.0105 43.0503 55.0243 43.0748 55.0457C43.0993 55.0671 43.1176 55.0946 43.1298 55.1282C43.1421 55.1619 43.1444 55.1963 43.1368 55.2315C43.1292 55.2667 43.1101 55.298 43.0794 55.3254L42.4052 55.9079L42.607 56.7747C42.6162 56.8144 42.6131 56.8504 42.5978 56.8826C42.5825 56.9147 42.5611 56.9415 42.5336 56.9627C42.5061 56.9841 42.474 56.9964 42.4373 56.9994C42.4006 57.0025 42.3655 56.9933 42.3318 56.9719L41.5705 56.5133Z" fill="#CCACF9"/>
<path d="M45.5705 56.5133L44.8092 56.9719C44.7755 56.9933 44.7404 57.0025 44.7037 56.9994C44.667 56.9964 44.6349 56.9841 44.6074 56.9627C44.5799 56.9413 44.5585 56.9146 44.5432 56.8824C44.5279 56.8502 44.5248 56.8143 44.534 56.7747L44.7358 55.9079L44.0616 55.3254C44.031 55.2979 44.012 55.2665 44.0044 55.2313C43.9968 55.1961 43.9991 55.1617 44.0112 55.1282C44.0234 55.0946 44.0417 55.0671 44.0662 55.0457C44.0907 55.0243 44.1243 55.0105 44.1671 55.0044L45.0568 54.9264L45.4008 54.1101C45.4161 54.0734 45.4398 54.0459 45.472 54.0275C45.5042 54.0092 45.537 54 45.5705 54C45.6041 54 45.637 54.0092 45.669 54.0275C45.7011 54.0459 45.7248 54.0734 45.7402 54.1101L46.0842 54.9264L46.9739 55.0044C47.0167 55.0105 47.0503 55.0243 47.0748 55.0457C47.0993 55.0671 47.1176 55.0946 47.1298 55.1282C47.1421 55.1619 47.1444 55.1963 47.1368 55.2315C47.1292 55.2667 47.1101 55.298 47.0794 55.3254L46.4052 55.9079L46.607 56.7747C46.6162 56.8144 46.6131 56.8504 46.5978 56.8826C46.5825 56.9147 46.5611 56.9415 46.5336 56.9627C46.5061 56.9841 46.474 56.9964 46.4373 56.9994C46.4006 57.0025 46.3655 56.9933 46.3318 56.9719L45.5705 56.5133Z" fill="#CCACF9"/>
<rect x="73" y="61" width="17" height="4" rx="2" fill="#CCACF9"/>
<path d="M73 26.25H102C102.966 26.25 103.75 27.0335 103.75 28V86C103.75 86.9665 102.966 87.75 102 87.75H73C72.0335 87.75 71.25 86.9665 71.25 86V28C71.25 27.0335 72.0335 26.25 73 26.25Z" stroke="#EFE5FD" stroke-width="0.5"/>
<path d="M73 26.25H102C102.966 26.25 103.75 27.0335 103.75 28V50.75H71.25V28C71.25 27.0335 72.0335 26.25 73 26.25Z" fill="#E0C5FF" stroke="#6B21A8" stroke-width="0.5"/>
<rect x="73" y="69" width="25" height="3" rx="1.5" fill="#EFE5FD"/>
<rect x="73" y="75" width="25" height="3" rx="1.5" fill="#EFE5FD"/>
<rect width="7" height="3" rx="1.5" transform="matrix(-1 0 0 1 80 82)" fill="#CCACF9"/>
<path d="M74.5705 56.5133L73.8092 56.9719C73.7755 56.9933 73.7404 57.0025 73.7037 56.9994C73.667 56.9964 73.6349 56.9841 73.6074 56.9627C73.5799 56.9413 73.5585 56.9146 73.5432 56.8824C73.5279 56.8502 73.5248 56.8143 73.534 56.7747L73.7358 55.9079L73.0616 55.3254C73.031 55.2979 73.012 55.2665 73.0044 55.2313C72.9968 55.1961 72.9991 55.1617 73.0112 55.1282C73.0234 55.0946 73.0417 55.0671 73.0662 55.0457C73.0907 55.0243 73.1243 55.0105 73.1671 55.0044L74.0568 54.9264L74.4008 54.1101C74.4161 54.0734 74.4398 54.0459 74.472 54.0275C74.5042 54.0092 74.537 54 74.5705 54C74.6041 54 74.637 54.0092 74.669 54.0275C74.7011 54.0459 74.7248 54.0734 74.7402 54.1101L75.0842 54.9264L75.9739 55.0044C76.0167 55.0105 76.0503 55.0243 76.0748 55.0457C76.0993 55.0671 76.1176 55.0946 76.1298 55.1282C76.1421 55.1619 76.1444 55.1963 76.1368 55.2315C76.1292 55.2667 76.1101 55.298 76.0794 55.3254L75.4052 55.9079L75.607 56.7747C75.6162 56.8144 75.6131 56.8504 75.5978 56.8826C75.5825 56.9147 75.5611 56.9415 75.5336 56.9627C75.5061 56.9841 75.474 56.9964 75.4373 56.9994C75.4006 57.0025 75.3655 56.9933 75.3318 56.9719L74.5705 56.5133Z" fill="#CCACF9"/>
<path d="M78.5705 56.5133L77.8092 56.9719C77.7755 56.9933 77.7404 57.0025 77.7037 56.9994C77.667 56.9964 77.6349 56.9841 77.6074 56.9627C77.5799 56.9413 77.5585 56.9146 77.5432 56.8824C77.5279 56.8502 77.5248 56.8143 77.534 56.7747L77.7358 55.9079L77.0616 55.3254C77.031 55.2979 77.012 55.2665 77.0044 55.2313C76.9968 55.1961 76.9991 55.1617 77.0112 55.1282C77.0234 55.0946 77.0417 55.0671 77.0662 55.0457C77.0907 55.0243 77.1243 55.0105 77.1671 55.0044L78.0568 54.9264L78.4008 54.1101C78.4161 54.0734 78.4398 54.0459 78.472 54.0275C78.5042 54.0092 78.537 54 78.5705 54C78.6041 54 78.637 54.0092 78.669 54.0275C78.7011 54.0459 78.7248 54.0734 78.7402 54.1101L79.0842 54.9264L79.9739 55.0044C80.0167 55.0105 80.0503 55.0243 80.0748 55.0457C80.0993 55.0671 80.1176 55.0946 80.1298 55.1282C80.1421 55.1619 80.1444 55.1963 80.1368 55.2315C80.1292 55.2667 80.1101 55.298 80.0794 55.3254L79.4052 55.9079L79.607 56.7747C79.6162 56.8144 79.6131 56.8504 79.5978 56.8826C79.5825 56.9147 79.5611 56.9415 79.5336 56.9627C79.5061 56.9841 79.474 56.9964 79.4373 56.9994C79.4006 57.0025 79.3655 56.9933 79.3318 56.9719L78.5705 56.5133Z" fill="#CCACF9"/>
<path d="M82.5705 56.5133L81.8092 56.9719C81.7755 56.9933 81.7404 57.0025 81.7037 56.9994C81.667 56.9964 81.6349 56.9841 81.6074 56.9627C81.5799 56.9413 81.5585 56.9146 81.5432 56.8824C81.5279 56.8502 81.5248 56.8143 81.534 56.7747L81.7358 55.9079L81.0616 55.3254C81.031 55.2979 81.012 55.2665 81.0044 55.2313C80.9968 55.1961 80.9991 55.1617 81.0112 55.1282C81.0234 55.0946 81.0417 55.0671 81.0662 55.0457C81.0907 55.0243 81.1243 55.0105 81.1671 55.0044L82.0568 54.9264L82.4008 54.1101C82.4161 54.0734 82.4398 54.0459 82.472 54.0275C82.5042 54.0092 82.537 54 82.5705 54C82.6041 54 82.637 54.0092 82.669 54.0275C82.7011 54.0459 82.7248 54.0734 82.7402 54.1101L83.0842 54.9264L83.9739 55.0044C84.0167 55.0105 84.0503 55.0243 84.0748 55.0457C84.0993 55.0671 84.1176 55.0946 84.1298 55.1282C84.1421 55.1619 84.1444 55.1963 84.1368 55.2315C84.1292 55.2667 84.1101 55.298 84.0794 55.3254L83.4052 55.9079L83.607 56.7747C83.6162 56.8144 83.6131 56.8504 83.5978 56.8826C83.5825 56.9147 83.5611 56.9415 83.5336 56.9627C83.5061 56.9841 83.474 56.9964 83.4373 56.9994C83.4006 57.0025 83.3655 56.9933 83.3318 56.9719L82.5705 56.5133Z" fill="#CCACF9"/>
<path d="M86.5705 56.5133L85.8092 56.9719C85.7755 56.9933 85.7404 57.0025 85.7037 56.9994C85.667 56.9964 85.6349 56.9841 85.6074 56.9627C85.5799 56.9413 85.5585 56.9146 85.5432 56.8824C85.5279 56.8502 85.5248 56.8143 85.534 56.7747L85.7358 55.9079L85.0616 55.3254C85.031 55.2979 85.012 55.2665 85.0044 55.2313C84.9968 55.1961 84.9991 55.1617 85.0112 55.1282C85.0234 55.0946 85.0417 55.0671 85.0662 55.0457C85.0907 55.0243 85.1243 55.0105 85.1671 55.0044L86.0568 54.9264L86.4008 54.1101C86.4161 54.0734 86.4398 54.0459 86.472 54.0275C86.5042 54.0092 86.537 54 86.5705 54C86.6041 54 86.637 54.0092 86.669 54.0275C86.7011 54.0459 86.7248 54.0734 86.7402 54.1101L87.0842 54.9264L87.9739 55.0044C88.0167 55.0105 88.0503 55.0243 88.0748 55.0457C88.0993 55.0671 88.1176 55.0946 88.1298 55.1282C88.1421 55.1619 88.1444 55.1963 88.1368 55.2315C88.1292 55.2667 88.1101 55.298 88.0794 55.3254L87.4052 55.9079L87.607 56.7747C87.6162 56.8144 87.6131 56.8504 87.5978 56.8826C87.5825 56.9147 87.5611 56.9415 87.5336 56.9627C87.5061 56.9841 87.474 56.9964 87.4373 56.9994C87.4006 57.0025 87.3655 56.9933 87.3318 56.9719L86.5705 56.5133Z" fill="#CCACF9"/>
<rect x="114" y="61" width="17" height="4" rx="2" fill="#CCACF9"/>
<path d="M114 26.25H143C143.966 26.25 144.75 27.0335 144.75 28V86C144.75 86.9665 143.966 87.75 143 87.75H114C113.034 87.75 112.25 86.9665 112.25 86V28C112.25 27.0335 113.034 26.25 114 26.25Z" stroke="#EFE5FD" stroke-width="0.5"/>
<path d="M114 26.25H143C143.966 26.25 144.75 27.0335 144.75 28V50.75H112.25V28C112.25 27.0335 113.034 26.25 114 26.25Z" fill="#E0C5FF" stroke="#6B21A8" stroke-width="0.5"/>
<rect x="114" y="69" width="25" height="3" rx="1.5" fill="#EFE5FD"/>
<rect x="114" y="75" width="25" height="3" rx="1.5" fill="#EFE5FD"/>
<rect width="7" height="3" rx="1.5" transform="matrix(-1 0 0 1 121 82)" fill="#CCACF9"/>
<path d="M115.571 56.5133L114.809 56.9719C114.776 56.9933 114.74 57.0025 114.704 56.9994C114.667 56.9964 114.635 56.9841 114.607 56.9627C114.58 56.9413 114.558 56.9146 114.543 56.8824C114.528 56.8502 114.525 56.8143 114.534 56.7747L114.736 55.9079L114.062 55.3254C114.031 55.2979 114.012 55.2665 114.004 55.2313C113.997 55.1961 113.999 55.1617 114.011 55.1282C114.023 55.0946 114.042 55.0671 114.066 55.0457C114.091 55.0243 114.124 55.0105 114.167 55.0044L115.057 54.9264L115.401 54.1101C115.416 54.0734 115.44 54.0459 115.472 54.0275C115.504 54.0092 115.537 54 115.571 54C115.604 54 115.637 54.0092 115.669 54.0275C115.701 54.0459 115.725 54.0734 115.74 54.1101L116.084 54.9264L116.974 55.0044C117.017 55.0105 117.05 55.0243 117.075 55.0457C117.099 55.0671 117.118 55.0946 117.13 55.1282C117.142 55.1619 117.144 55.1963 117.137 55.2315C117.129 55.2667 117.11 55.298 117.079 55.3254L116.405 55.9079L116.607 56.7747C116.616 56.8144 116.613 56.8504 116.598 56.8826C116.583 56.9147 116.561 56.9415 116.534 56.9627C116.506 56.9841 116.474 56.9964 116.437 56.9994C116.401 57.0025 116.365 56.9933 116.332 56.9719L115.571 56.5133Z" fill="#CCACF9"/>
<path d="M119.571 56.5133L118.809 56.9719C118.776 56.9933 118.74 57.0025 118.704 56.9994C118.667 56.9964 118.635 56.9841 118.607 56.9627C118.58 56.9413 118.558 56.9146 118.543 56.8824C118.528 56.8502 118.525 56.8143 118.534 56.7747L118.736 55.9079L118.062 55.3254C118.031 55.2979 118.012 55.2665 118.004 55.2313C117.997 55.1961 117.999 55.1617 118.011 55.1282C118.023 55.0946 118.042 55.0671 118.066 55.0457C118.091 55.0243 118.124 55.0105 118.167 55.0044L119.057 54.9264L119.401 54.1101C119.416 54.0734 119.44 54.0459 119.472 54.0275C119.504 54.0092 119.537 54 119.571 54C119.604 54 119.637 54.0092 119.669 54.0275C119.701 54.0459 119.725 54.0734 119.74 54.1101L120.084 54.9264L120.974 55.0044C121.017 55.0105 121.05 55.0243 121.075 55.0457C121.099 55.0671 121.118 55.0946 121.13 55.1282C121.142 55.1619 121.144 55.1963 121.137 55.2315C121.129 55.2667 121.11 55.298 121.079 55.3254L120.405 55.9079L120.607 56.7747C120.616 56.8144 120.613 56.8504 120.598 56.8826C120.583 56.9147 120.561 56.9415 120.534 56.9627C120.506 56.9841 120.474 56.9964 120.437 56.9994C120.401 57.0025 120.365 56.9933 120.332 56.9719L119.571 56.5133Z" fill="#CCACF9"/>
<path d="M123.571 56.5133L122.809 56.9719C122.776 56.9933 122.74 57.0025 122.704 56.9994C122.667 56.9964 122.635 56.9841 122.607 56.9627C122.58 56.9413 122.558 56.9146 122.543 56.8824C122.528 56.8502 122.525 56.8143 122.534 56.7747L122.736 55.9079L122.062 55.3254C122.031 55.2979 122.012 55.2665 122.004 55.2313C121.997 55.1961 121.999 55.1617 122.011 55.1282C122.023 55.0946 122.042 55.0671 122.066 55.0457C122.091 55.0243 122.124 55.0105 122.167 55.0044L123.057 54.9264L123.401 54.1101C123.416 54.0734 123.44 54.0459 123.472 54.0275C123.504 54.0092 123.537 54 123.571 54C123.604 54 123.637 54.0092 123.669 54.0275C123.701 54.0459 123.725 54.0734 123.74 54.1101L124.084 54.9264L124.974 55.0044C125.017 55.0105 125.05 55.0243 125.075 55.0457C125.099 55.0671 125.118 55.0946 125.13 55.1282C125.142 55.1619 125.144 55.1963 125.137 55.2315C125.129 55.2667 125.11 55.298 125.079 55.3254L124.405 55.9079L124.607 56.7747C124.616 56.8144 124.613 56.8504 124.598 56.8826C124.583 56.9147 124.561 56.9415 124.534 56.9627C124.506 56.9841 124.474 56.9964 124.437 56.9994C124.401 57.0025 124.365 56.9933 124.332 56.9719L123.571 56.5133Z" fill="#CCACF9"/>
<path d="M127.571 56.5133L126.809 56.9719C126.776 56.9933 126.74 57.0025 126.704 56.9994C126.667 56.9964 126.635 56.9841 126.607 56.9627C126.58 56.9413 126.558 56.9146 126.543 56.8824C126.528 56.8502 126.525 56.8143 126.534 56.7747L126.736 55.9079L126.062 55.3254C126.031 55.2979 126.012 55.2665 126.004 55.2313C125.997 55.1961 125.999 55.1617 126.011 55.1282C126.023 55.0946 126.042 55.0671 126.066 55.0457C126.091 55.0243 126.124 55.0105 126.167 55.0044L127.057 54.9264L127.401 54.1101C127.416 54.0734 127.44 54.0459 127.472 54.0275C127.504 54.0092 127.537 54 127.571 54C127.604 54 127.637 54.0092 127.669 54.0275C127.701 54.0459 127.725 54.0734 127.74 54.1101L128.084 54.9264L128.974 55.0044C129.017 55.0105 129.05 55.0243 129.075 55.0457C129.099 55.0671 129.118 55.0946 129.13 55.1282C129.142 55.1619 129.144 55.1963 129.137 55.2315C129.129 55.2667 129.11 55.298 129.079 55.3254L128.405 55.9079L128.607 56.7747C128.616 56.8144 128.613 56.8504 128.598 56.8826C128.583 56.9147 128.561 56.9415 128.534 56.9627C128.506 56.9841 128.474 56.9964 128.437 56.9994C128.401 57.0025 128.365 56.9933 128.332 56.9719L127.571 56.5133Z" fill="#CCACF9"/>
</svg>
