<svg width="175" viewBox="0 0 175 115" fill="none" xmlns="http://www.w3.org/2000/svg">
<rect width="175" height="115" fill="#F1F2F4"/>
<rect x="20.5" y="26.5" width="134" height="63" rx="2.5" fill="white" stroke="#6B21A8"/>
<rect x="33" y="52" width="17" height="4" rx="2" fill="#CCACF9"/>
<path d="M32 36.25H61C61.9665 36.25 62.75 37.0335 62.75 38V78C62.75 78.9665 61.9665 79.75 61 79.75H32C31.0335 79.75 30.25 78.9665 30.25 78V38C30.25 37.0335 31.0335 36.25 32 36.25Z" stroke="#EFE5FD" stroke-width="0.5"/>
<path d="M33 41C33 39.8954 33.8954 39 35 39H40C41.1046 39 42 39.8954 42 41V46C42 47.1046 41.1046 48 40 48H35C33.8954 48 33 47.1046 33 46V41Z" fill="#E0C5FF"/>
<rect x="33" y="60" width="25" height="3" rx="1.5" fill="#EFE5FD"/>
<rect x="33" y="66" width="25" height="3" rx="1.5" fill="#EFE5FD"/>
<rect width="7" height="3" rx="1.5" transform="matrix(-1 0 0 1 40 73)" fill="#CCACF9"/>
<path d="M36.7388 44.8374L37.5 44.2543L38.2612 44.8374L37.9758 43.8761L38.6894 43.3718H37.8013L37.5 42.3947L37.1987 43.3718H36.3106L37.0242 43.8761L36.7388 44.8374ZM37.5 45.0422L36.3265 45.9326C36.2683 45.9799 36.2049 46.0023 36.1362 45.9998C36.0674 45.9973 36.0066 45.9775 35.9538 45.9405C35.9009 45.9038 35.86 45.8538 35.831 45.7908C35.8021 45.7278 35.8007 45.6595 35.8269 45.5859L36.2789 44.1282L35.1291 43.3166C35.0657 43.2746 35.0261 43.2194 35.0102 43.1511C34.9943 43.0828 34.997 43.0198 35.0181 42.962C35.0393 42.9042 35.0763 42.853 35.1291 42.8082C35.182 42.7635 35.2454 42.7412 35.3194 42.7414H36.7388L37.1987 41.2285C37.2251 41.155 37.2661 41.0984 37.3217 41.0589C37.3774 41.0194 37.4368 40.9998 37.5 41C37.5634 41 37.623 41.0198 37.6786 41.0593C37.7342 41.0988 37.7751 41.1552 37.8013 41.2285L38.2612 42.7414H39.6806C39.7546 42.7414 39.818 42.7638 39.8709 42.8085C39.9237 42.8533 39.9607 42.9045 39.9819 42.962C40.003 43.0198 40.0057 43.0828 39.9898 43.1511C39.9739 43.2194 39.9343 43.2746 39.8709 43.3166L38.7211 44.1282L39.1731 45.5859C39.1995 45.6595 39.1982 45.7278 39.1693 45.7908C39.1403 45.8538 39.0993 45.9038 39.0462 45.9405C38.9934 45.9773 38.9326 45.997 38.8638 45.9998C38.7951 46.0025 38.7317 45.9801 38.6735 45.9326L37.5 45.0422Z" fill="#6B21A8"/>
<rect x="74" y="52" width="17" height="4" rx="2" fill="#CCACF9"/>
<path d="M73 36.25H102C102.966 36.25 103.75 37.0335 103.75 38V78C103.75 78.9665 102.966 79.75 102 79.75H73C72.0335 79.75 71.25 78.9665 71.25 78V38C71.25 37.0335 72.0335 36.25 73 36.25Z" stroke="#EFE5FD" stroke-width="0.5"/>
<path d="M74 41C74 39.8954 74.8954 39 76 39H81C82.1046 39 83 39.8954 83 41V46C83 47.1046 82.1046 48 81 48H76C74.8954 48 74 47.1046 74 46V41Z" fill="#E0C5FF"/>
<rect x="74" y="60" width="25" height="3" rx="1.5" fill="#EFE5FD"/>
<rect x="74" y="66" width="25" height="3" rx="1.5" fill="#EFE5FD"/>
<rect width="7" height="3" rx="1.5" transform="matrix(-1 0 0 1 81 73)" fill="#CCACF9"/>
<path d="M77.7388 44.8374L78.5 44.2543L79.2612 44.8374L78.9758 43.8761L79.6894 43.3718H78.8013L78.5 42.3947L78.1987 43.3718H77.3106L78.0242 43.8761L77.7388 44.8374ZM78.5 45.0422L77.3265 45.9326C77.2683 45.9799 77.2049 46.0023 77.1362 45.9998C77.0674 45.9973 77.0066 45.9775 76.9538 45.9405C76.9009 45.9038 76.86 45.8538 76.831 45.7908C76.8021 45.7278 76.8007 45.6595 76.8269 45.5859L77.2789 44.1282L76.1291 43.3166C76.0657 43.2746 76.0261 43.2194 76.0102 43.1511C75.9943 43.0828 75.997 43.0198 76.0181 42.962C76.0393 42.9042 76.0763 42.853 76.1291 42.8082C76.182 42.7635 76.2454 42.7412 76.3194 42.7414H77.7388L78.1987 41.2285C78.2251 41.155 78.2661 41.0984 78.3217 41.0589C78.3774 41.0194 78.4368 40.9998 78.5 41C78.5634 41 78.623 41.0198 78.6786 41.0593C78.7342 41.0988 78.7751 41.1552 78.8013 41.2285L79.2612 42.7414H80.6806C80.7546 42.7414 80.818 42.7638 80.8709 42.8085C80.9237 42.8533 80.9607 42.9045 80.9819 42.962C81.003 43.0198 81.0057 43.0828 80.9898 43.1511C80.9739 43.2194 80.9343 43.2746 80.8709 43.3166L79.7211 44.1282L80.1731 45.5859C80.1995 45.6595 80.1982 45.7278 80.1693 45.7908C80.1403 45.8538 80.0993 45.9038 80.0462 45.9405C79.9934 45.9773 79.9326 45.997 79.8638 45.9998C79.7951 46.0025 79.7317 45.9801 79.6735 45.9326L78.5 45.0422Z" fill="#6B21A8"/>
<rect x="115" y="52" width="17" height="4" rx="2" fill="#CCACF9"/>
<path d="M114 36.25H143C143.966 36.25 144.75 37.0335 144.75 38V78C144.75 78.9665 143.966 79.75 143 79.75H114C113.034 79.75 112.25 78.9665 112.25 78V38C112.25 37.0335 113.034 36.25 114 36.25Z" stroke="#EFE5FD" stroke-width="0.5"/>
<path d="M115 41C115 39.8954 115.895 39 117 39H122C123.105 39 124 39.8954 124 41V46C124 47.1046 123.105 48 122 48H117C115.895 48 115 47.1046 115 46V41Z" fill="#E0C5FF"/>
<rect x="115" y="60" width="25" height="3" rx="1.5" fill="#EFE5FD"/>
<rect x="115" y="66" width="25" height="3" rx="1.5" fill="#EFE5FD"/>
<rect width="7" height="3" rx="1.5" transform="matrix(-1 0 0 1 122 73)" fill="#CCACF9"/>
<path d="M118.739 44.8374L119.5 44.2543L120.261 44.8374L119.976 43.8761L120.689 43.3718H119.801L119.5 42.3947L119.199 43.3718H118.311L119.024 43.8761L118.739 44.8374ZM119.5 45.0422L118.326 45.9326C118.268 45.9799 118.205 46.0023 118.136 45.9998C118.067 45.9973 118.007 45.9775 117.954 45.9405C117.901 45.9038 117.86 45.8538 117.831 45.7908C117.802 45.7278 117.801 45.6595 117.827 45.5859L118.279 44.1282L117.129 43.3166C117.066 43.2746 117.026 43.2194 117.01 43.1511C116.994 43.0828 116.997 43.0198 117.018 42.962C117.039 42.9042 117.076 42.853 117.129 42.8082C117.182 42.7635 117.245 42.7412 117.319 42.7414H118.739L119.199 41.2285C119.225 41.155 119.266 41.0984 119.322 41.0589C119.377 41.0194 119.437 40.9998 119.5 41C119.563 41 119.623 41.0198 119.679 41.0593C119.734 41.0988 119.775 41.1552 119.801 41.2285L120.261 42.7414H121.681C121.755 42.7414 121.818 42.7638 121.871 42.8085C121.924 42.8533 121.961 42.9045 121.982 42.962C122.003 43.0198 122.006 43.0828 121.99 43.1511C121.974 43.2194 121.934 43.2746 121.871 43.3166L120.721 44.1282L121.173 45.5859C121.2 45.6595 121.198 45.7278 121.169 45.7908C121.14 45.8538 121.099 45.9038 121.046 45.9405C120.993 45.9773 120.933 45.997 120.864 45.9998C120.795 46.0025 120.732 45.9801 120.674 45.9326L119.5 45.0422Z" fill="#6B21A8"/>
</svg>
