<svg width="175"  viewBox="0 0 175 115" fill="none" xmlns="http://www.w3.org/2000/svg">
<rect width="175" height="115" fill="#F1F2F4"/>
<rect x="20.5" y="18.5" width="134" height="78" rx="2.5" fill="white" stroke="#6B21A8"/>
<rect x="32" y="58" width="17" height="4" rx="2" fill="#CCACF9"/>
<path d="M32 28.25H61C61.9665 28.25 62.75 29.0335 62.75 30V85C62.75 85.9665 61.9665 86.75 61 86.75H32C31.0335 86.75 30.25 85.9665 30.25 85V30C30.25 29.0335 31.0335 28.25 32 28.25Z" stroke="#EFE5FD" stroke-width="0.5"/>
<path d="M32 28.25H61C61.9665 28.25 62.75 29.0335 62.75 30V52.75H30.25V30C30.25 29.0335 31.0335 28.25 32 28.25Z" fill="#E0C5FF" stroke="#6B21A8" stroke-width="0.5"/>
<rect x="32" y="66" width="25" height="3" rx="1.5" fill="#EFE5FD"/>
<rect x="32" y="72" width="25" height="3" rx="1.5" fill="#EFE5FD"/>
<rect width="7" height="3" rx="1.5" transform="matrix(-1 0 0 1 39 79)" fill="#CCACF9"/>
<rect x="73" y="58" width="17" height="4" rx="2" fill="#CCACF9"/>
<path d="M73 28.25H102C102.966 28.25 103.75 29.0335 103.75 30V85C103.75 85.9665 102.966 86.75 102 86.75H73C72.0335 86.75 71.25 85.9665 71.25 85V30C71.25 29.0335 72.0335 28.25 73 28.25Z" stroke="#EFE5FD" stroke-width="0.5"/>
<path d="M73 28.25H102C102.966 28.25 103.75 29.0335 103.75 30V52.75H71.25V30C71.25 29.0335 72.0335 28.25 73 28.25Z" fill="#E0C5FF" stroke="#6B21A8" stroke-width="0.5"/>
<rect x="73" y="66" width="25" height="3" rx="1.5" fill="#EFE5FD"/>
<rect x="73" y="72" width="25" height="3" rx="1.5" fill="#EFE5FD"/>
<rect width="7" height="3" rx="1.5" transform="matrix(-1 0 0 1 80 79)" fill="#CCACF9"/>
<rect x="114" y="58" width="17" height="4" rx="2" fill="#CCACF9"/>
<path d="M114 28.25H143C143.966 28.25 144.75 29.0335 144.75 30V85C144.75 85.9665 143.966 86.75 143 86.75H114C113.034 86.75 112.25 85.9665 112.25 85V30C112.25 29.0335 113.034 28.25 114 28.25Z" stroke="#EFE5FD" stroke-width="0.5"/>
<path d="M114 28.25H143C143.966 28.25 144.75 29.0335 144.75 30V52.75H112.25V30C112.25 29.0335 113.034 28.25 114 28.25Z" fill="#E0C5FF" stroke="#6B21A8" stroke-width="0.5"/>
<rect x="114" y="66" width="25" height="3" rx="1.5" fill="#EFE5FD"/>
<rect x="114" y="72" width="25" height="3" rx="1.5" fill="#EFE5FD"/>
<rect width="7" height="3" rx="1.5" transform="matrix(-1 0 0 1 121 79)" fill="#CCACF9"/>
</svg>
