<svg  viewBox="0 0 175 115" fill="none" xmlns="http://www.w3.org/2000/svg">

<rect x="48.5" y="18.5" width="79" height="79" rx="2.5" fill="white" stroke="#6B21A8"/>
<path d="M113.75 58C113.75 72.7736 101.774 84.75 87 84.75C72.2264 84.75 60.25 72.7736 60.25 58C60.25 43.2264 72.2264 31.25 87 31.25C101.774 31.25 113.75 43.2264 113.75 58Z" fill="#6B21A8" stroke="white" stroke-width="0.5"/>
<path d="M87 57.9834L114 57.9834C114 65.4834 111 72.2334 106.125 77.1084L87 57.9834Z" fill="#E0C5FF"/>
<path d="M60 57.9834L87 57.9834M87 57.9834L114 57.9834C114 65.4834 111 72.2334 106.125 77.1084L87 57.9834Z" stroke="white" stroke-width="0.5"/>
<path d="M67.9081 77.0918C78.5147 87.6984 95.4852 87.6984 106.092 77.0918L67.9081 38.9081C57.3015 49.5147 57.3015 66.4852 67.9081 77.0918Z" fill="#F295E3" stroke="white" stroke-width="0.5"/>
</svg>
