<svg viewBox="0 0 175 115" fill="none" xmlns="http://www.w3.org/2000/svg">

    <rect x="-0.5" y="0.5" width="134" height="48" rx="2.5" transform="matrix(-1 0 0 1 154 33)" fill="white" stroke="#6B21A8" />
    <rect width="133" height="37" transform="matrix(-1 0 0 1 154 39)" fill="#F8F4FE" />
    <path d="M141.998 58.3636V58.7685C141.998 58.8809 141.975 58.9946 141.93 59.1094C141.887 59.223 141.829 59.3295 141.758 59.429C141.687 59.5284 141.612 59.6125 141.533 59.6811L141.163 59.4787C141.218 59.3887 141.266 59.2875 141.309 59.1751C141.352 59.0614 141.373 58.9265 141.373 58.7702V58.3636H141.998ZM142.884 58.3636V58.7685C142.884 58.8809 142.861 58.9946 142.816 59.1094C142.773 59.223 142.715 59.3295 142.644 59.429C142.573 59.5284 142.498 59.6125 142.419 59.6811L142.049 59.4787C142.104 59.3887 142.152 59.2875 142.195 59.1751C142.238 59.0614 142.259 58.9265 142.259 58.7702V58.3636H142.884Z" fill="#E0C5FF" />
    <rect x="31" y="34" width="34" height="47" fill="#E0C5FF" />
    <rect x="97" y="51" width="46" height="3" rx="1.5" fill="#EFE5FD" />
    <rect x="116" y="58" width="23" height="3" rx="1.5" fill="#EFE5FD" />
    <path d="M92.2876 51.5V51.0952C92.2876 50.9827 92.3095 50.8691 92.3533 50.7543C92.3983 50.6383 92.4563 50.5305 92.5273 50.4311C92.5996 50.3305 92.6741 50.2476 92.7511 50.1825L93.1204 50.3849C93.0565 50.4891 93.0056 50.598 92.9677 50.7116C92.9298 50.8241 92.9115 50.9513 92.9126 51.0934V51.5H92.2876ZM93.179 51.5V51.0952C93.179 50.9827 93.2009 50.8691 93.2447 50.7543C93.2897 50.6383 93.3477 50.5305 93.4187 50.4311C93.4909 50.3305 93.5655 50.2476 93.6424 50.1825L94.0117 50.3849C93.9478 50.4891 93.8969 50.598 93.859 50.7116C93.8211 50.8241 93.8028 50.9513 93.804 51.0934V51.5H93.179Z" fill="#E0C5FF" />
    <rect x="127" y="66" width="16" height="1" fill="#AF7BF5" />
</svg>
