<svg viewBox="0 0 175 115" fill="none" xmlns="http://www.w3.org/2000/svg">
<rect width="175" height="115" fill="#F1F2F4"/>
<rect x="20.5" y="38.5" width="134" height="38" rx="2.5" fill="white" stroke="#6B21A8"/>
<rect x="30" y="46" width="9" height="2" rx="1" fill="#E0C5FF"/>
<rect x="76" y="46" width="69" height="3" rx="1.5" fill="#F3E8FF"/>
<path d="M40.5653 48.027C40.4877 48.027 40.4209 47.9995 40.3651 47.9446C40.3092 47.8887 40.2812 47.8215 40.2812 47.7429C40.2812 47.6652 40.3092 47.599 40.3651 47.544C40.4209 47.4882 40.4877 47.4602 40.5653 47.4602C40.643 47.4602 40.7098 47.4882 40.7656 47.544C40.8215 47.599 40.8494 47.6652 40.8494 47.7429C40.8494 47.795 40.8362 47.8428 40.8097 47.8864C40.7841 47.929 40.75 47.9631 40.7074 47.9886C40.6648 48.0142 40.6174 48.027 40.5653 48.027ZM40.5653 46.4389C40.4877 46.4389 40.4209 46.411 40.3651 46.3551C40.3092 46.2992 40.2812 46.2325 40.2812 46.1548C40.2812 46.0772 40.3092 46.0109 40.3651 45.956C40.4209 45.9001 40.4877 45.8722 40.5653 45.8722C40.643 45.8722 40.7098 45.9001 40.7656 45.956C40.8215 46.0109 40.8494 46.0772 40.8494 46.1548C40.8494 46.2069 40.8362 46.2547 40.8097 46.2983C40.7841 46.3409 40.75 46.375 40.7074 46.4006C40.6648 46.4261 40.6174 46.4389 40.5653 46.4389Z" fill="#E0C5FF"/>
<rect x="30" y="56" width="9" height="2" rx="1" fill="#E0C5FF"/>
<rect x="76" y="56" width="69" height="3" rx="1.5" fill="#F3E8FF"/>
<path d="M40.5653 58.027C40.4877 58.027 40.4209 57.9995 40.3651 57.9446C40.3092 57.8887 40.2812 57.8215 40.2812 57.7429C40.2812 57.6652 40.3092 57.599 40.3651 57.544C40.4209 57.4882 40.4877 57.4602 40.5653 57.4602C40.643 57.4602 40.7098 57.4882 40.7656 57.544C40.8215 57.599 40.8494 57.6652 40.8494 57.7429C40.8494 57.795 40.8362 57.8428 40.8097 57.8864C40.7841 57.929 40.75 57.9631 40.7074 57.9886C40.6648 58.0142 40.6174 58.027 40.5653 58.027ZM40.5653 56.4389C40.4877 56.4389 40.4209 56.411 40.3651 56.3551C40.3092 56.2992 40.2812 56.2325 40.2812 56.1548C40.2812 56.0772 40.3092 56.0109 40.3651 55.956C40.4209 55.9001 40.4877 55.8722 40.5653 55.8722C40.643 55.8722 40.7098 55.9001 40.7656 55.956C40.8215 56.0109 40.8494 56.0772 40.8494 56.1548C40.8494 56.2069 40.8362 56.2547 40.8097 56.2983C40.7841 56.3409 40.75 56.375 40.7074 56.4006C40.6648 56.4261 40.6174 56.4389 40.5653 56.4389Z" fill="#E0C5FF"/>
<rect x="30" y="66" width="9" height="2" rx="1" fill="#E0C5FF"/>
<rect x="76" y="66" width="69" height="3" rx="1.5" fill="#F3E8FF"/>
<path d="M40.5653 68.027C40.4877 68.027 40.4209 67.9995 40.3651 67.9446C40.3092 67.8887 40.2812 67.8215 40.2812 67.7429C40.2812 67.6652 40.3092 67.599 40.3651 67.544C40.4209 67.4882 40.4877 67.4602 40.5653 67.4602C40.643 67.4602 40.7098 67.4882 40.7656 67.544C40.8215 67.599 40.8494 67.6652 40.8494 67.7429C40.8494 67.795 40.8362 67.8428 40.8097 67.8864C40.7841 67.929 40.75 67.9631 40.7074 67.9886C40.6648 68.0142 40.6174 68.027 40.5653 68.027ZM40.5653 66.4389C40.4877 66.4389 40.4209 66.411 40.3651 66.3551C40.3092 66.2992 40.2812 66.2325 40.2812 66.1548C40.2812 66.0772 40.3092 66.0109 40.3651 65.956C40.4209 65.9001 40.4877 65.8722 40.5653 65.8722C40.643 65.8722 40.7098 65.9001 40.7656 65.956C40.8215 66.0109 40.8494 66.0772 40.8494 66.1548C40.8494 66.2069 40.8362 66.2547 40.8097 66.2983C40.7841 66.3409 40.75 66.375 40.7074 66.4006C40.6648 66.4261 40.6174 66.4389 40.5653 66.4389Z" fill="#E0C5FF"/>
</svg>
