<svg viewBox="0 0 175 115" fill="none" xmlns="http://www.w3.org/2000/svg">
<rect width="175" height="115" fill="#F1F2F4"/>
<rect x="20.5" y="29.5" width="134" height="55" rx="2.5" fill="white" stroke="#6B21A8"/>
<rect x="73" y="44" width="30" height="3" rx="1.5" fill="#EFE5FD"/>
<rect x="55" y="35" width="65" height="4" rx="2" fill="#CCACF9"/>
<rect x="30" y="54" width="9" height="2" rx="1" fill="#E0C5FF"/>
<rect x="76" y="54" width="69" height="3" rx="1.5" fill="#F3E8FF"/>
<path d="M40.5653 56.027C40.4877 56.027 40.4209 55.9995 40.3651 55.9446C40.3092 55.8887 40.2812 55.8215 40.2812 55.7429C40.2812 55.6652 40.3092 55.599 40.3651 55.544C40.4209 55.4882 40.4877 55.4602 40.5653 55.4602C40.643 55.4602 40.7098 55.4882 40.7656 55.544C40.8215 55.599 40.8494 55.6652 40.8494 55.7429C40.8494 55.795 40.8362 55.8428 40.8097 55.8864C40.7841 55.929 40.75 55.9631 40.7074 55.9886C40.6648 56.0142 40.6174 56.027 40.5653 56.027ZM40.5653 54.4389C40.4877 54.4389 40.4209 54.411 40.3651 54.3551C40.3092 54.2992 40.2812 54.2325 40.2812 54.1548C40.2812 54.0772 40.3092 54.0109 40.3651 53.956C40.4209 53.9001 40.4877 53.8722 40.5653 53.8722C40.643 53.8722 40.7098 53.9001 40.7656 53.956C40.8215 54.0109 40.8494 54.0772 40.8494 54.1548C40.8494 54.2069 40.8362 54.2547 40.8097 54.2983C40.7841 54.3409 40.75 54.375 40.7074 54.4006C40.6648 54.4261 40.6174 54.4389 40.5653 54.4389Z" fill="#E0C5FF"/>
<rect x="30" y="64" width="9" height="2" rx="1" fill="#E0C5FF"/>
<rect x="76" y="64" width="69" height="3" rx="1.5" fill="#F3E8FF"/>
<path d="M40.5653 66.027C40.4877 66.027 40.4209 65.9995 40.3651 65.9446C40.3092 65.8887 40.2812 65.8215 40.2812 65.7429C40.2812 65.6652 40.3092 65.599 40.3651 65.544C40.4209 65.4882 40.4877 65.4602 40.5653 65.4602C40.643 65.4602 40.7098 65.4882 40.7656 65.544C40.8215 65.599 40.8494 65.6652 40.8494 65.7429C40.8494 65.795 40.8362 65.8428 40.8097 65.8864C40.7841 65.929 40.75 65.9631 40.7074 65.9886C40.6648 66.0142 40.6174 66.027 40.5653 66.027ZM40.5653 64.4389C40.4877 64.4389 40.4209 64.411 40.3651 64.3551C40.3092 64.2992 40.2812 64.2325 40.2812 64.1548C40.2812 64.0772 40.3092 64.0109 40.3651 63.956C40.4209 63.9001 40.4877 63.8722 40.5653 63.8722C40.643 63.8722 40.7098 63.9001 40.7656 63.956C40.8215 64.0109 40.8494 64.0772 40.8494 64.1548C40.8494 64.2069 40.8362 64.2547 40.8097 64.2983C40.7841 64.3409 40.75 64.375 40.7074 64.4006C40.6648 64.4261 40.6174 64.4389 40.5653 64.4389Z" fill="#E0C5FF"/>
<rect x="30" y="74" width="9" height="2" rx="1" fill="#E0C5FF"/>
<rect x="76" y="74" width="69" height="3" rx="1.5" fill="#F3E8FF"/>
<path d="M40.5653 76.027C40.4877 76.027 40.4209 75.9995 40.3651 75.9446C40.3092 75.8887 40.2812 75.8215 40.2812 75.7429C40.2812 75.6652 40.3092 75.599 40.3651 75.544C40.4209 75.4882 40.4877 75.4602 40.5653 75.4602C40.643 75.4602 40.7098 75.4882 40.7656 75.544C40.8215 75.599 40.8494 75.6652 40.8494 75.7429C40.8494 75.795 40.8362 75.8428 40.8097 75.8864C40.7841 75.929 40.75 75.9631 40.7074 75.9886C40.6648 76.0142 40.6174 76.027 40.5653 76.027ZM40.5653 74.4389C40.4877 74.4389 40.4209 74.411 40.3651 74.3551C40.3092 74.2992 40.2812 74.2325 40.2812 74.1548C40.2812 74.0772 40.3092 74.0109 40.3651 73.956C40.4209 73.9001 40.4877 73.8722 40.5653 73.8722C40.643 73.8722 40.7098 73.9001 40.7656 73.956C40.8215 74.0109 40.8494 74.0772 40.8494 74.1548C40.8494 74.2069 40.8362 74.2547 40.8097 74.2983C40.7841 74.3409 40.75 74.375 40.7074 74.4006C40.6648 74.4261 40.6174 74.4389 40.5653 74.4389Z" fill="#E0C5FF"/>
</svg>
