<svg viewBox="0 0 175 115" fill="none" xmlns="http://www.w3.org/2000/svg">

    <rect x="20.5" y="26.5" width="134" height="64" rx="2.5" fill="white" stroke="#6B21A8" />
    <rect x="30" y="75" width="24" height="4" rx="2" fill="#F3E8FF" />
    <rect x="93" y="75" width="24" height="4" rx="2" fill="#F3E8FF" />
    <rect x="30.25" y="38.25" width="52.5" height="31.5" rx="1.75" fill="#E0C5FF" stroke="#6B21A8" stroke-width="0.5" />
    <rect x="93.25" y="38.25" width="52.5" height="31.5" rx="1.75" fill="#E0C5FF" stroke="#6B21A8" stroke-width="0.5" />
    <path d="M53 56.2768V51.7232C53 50.9554 53.8295 50.474 54.4961 50.8549L58.4806 53.1318C59.1524 53.5157 59.1524 54.4843 58.4806 54.8682L54.4961 57.1451C53.8295 57.526 53 57.0446 53 56.2768Z" fill="#6B21A8" />
    <path d="M116 56.2768V51.7232C116 50.9554 116.829 50.474 117.496 50.8549L121.481 53.1318C122.152 53.5157 122.152 54.4843 121.481 54.8682L117.496 57.1451C116.829 57.526 116 57.0446 116 56.2768Z" fill="#6B21A8" />
</svg>
