<svg viewBox="0 0 175 115" fill="none" xmlns="http://www.w3.org/2000/svg">

    <rect x="20.5" y="26.5" width="134" height="64" rx="2.5" fill="white" stroke="#6B21A8" />
    <rect x="30" y="75" width="24" height="4" rx="2" fill="#F3E8FF" />
    <rect x="72" y="75" width="24" height="4" rx="2" fill="#F3E8FF" />
    <rect x="114" y="75" width="24" height="4" rx="2" fill="#F3E8FF" />
    <rect x="30.25" y="38.25" width="30.5" height="31.5" rx="1.75" fill="#E0C5FF" stroke="#6B21A8" stroke-width="0.5" />
    <rect x="114.25" y="38.25" width="30.5" height="31.5" rx="1.75" fill="#E0C5FF" stroke="#6B21A8" stroke-width="0.5" />
    <rect x="72.25" y="38.25" width="30.5" height="31.5" rx="1.75" fill="#E0C5FF" stroke="#6B21A8" stroke-width="0.5" />
    <path d="M42 56.2768V51.7232C42 50.9554 42.8295 50.474 43.4961 50.8549L47.4806 53.1318C48.1524 53.5157 48.1524 54.4843 47.4806 54.8682L43.4961 57.1451C42.8295 57.526 42 57.0446 42 56.2768Z" fill="#6B21A8" />
    <path d="M84 56.2768V51.7232C84 50.9554 84.8295 50.474 85.4961 50.8549L89.4806 53.1318C90.1524 53.5157 90.1524 54.4843 89.4806 54.8682L85.4961 57.1451C84.8295 57.526 84 57.0446 84 56.2768Z" fill="#6B21A8" />
    <path d="M126 56.2768V51.7232C126 50.9554 126.829 50.474 127.496 50.8549L131.481 53.1318C132.152 53.5157 132.152 54.4843 131.481 54.8682L127.496 57.1451C126.829 57.526 126 57.0446 126 56.2768Z" fill="#6B21A8" />
</svg>
