<svg viewBox="0 0 175 115" fill="none" xmlns="http://www.w3.org/2000/svg">

    <rect x="20.5" y="44.5" width="134" height="24" rx="2.5" fill="white" stroke="#6B21A8" />
    <path d="M78.517 60V59.2386L80.5369 57.2585C80.7301 57.0634 80.8911 56.8902 81.0199 56.7386C81.1487 56.5871 81.2453 56.4403 81.3097 56.2983C81.3741 56.1562 81.4062 56.0047 81.4062 55.8438C81.4062 55.66 81.3646 55.5028 81.2812 55.3722C81.1979 55.2396 81.0833 55.1373 80.9375 55.0653C80.7917 54.9934 80.6259 54.9574 80.4403 54.9574C80.2491 54.9574 80.0814 54.9972 79.9375 55.0767C79.7936 55.1544 79.6818 55.2652 79.6023 55.4091C79.5246 55.553 79.4858 55.7244 79.4858 55.9233H78.483C78.483 55.554 78.5672 55.233 78.7358 54.9602C78.9044 54.6875 79.1364 54.4763 79.4318 54.3267C79.7292 54.1771 80.0701 54.1023 80.4545 54.1023C80.8447 54.1023 81.1875 54.1752 81.483 54.321C81.7784 54.4669 82.0076 54.6667 82.1705 54.9205C82.3352 55.1742 82.4176 55.464 82.4176 55.7898C82.4176 56.0076 82.3759 56.2216 82.2926 56.4318C82.2093 56.642 82.0625 56.875 81.8523 57.1307C81.6439 57.3864 81.3513 57.696 80.9744 58.0597L79.9716 59.0795V59.1193H82.5057V60H78.517ZM85.6364 60.1108C85.1686 60.1108 84.767 59.9924 84.4318 59.7557C84.0985 59.517 83.8419 59.1733 83.6619 58.7244C83.4839 58.2737 83.3949 57.7311 83.3949 57.0966C83.3968 56.4621 83.4867 55.9223 83.6648 55.4773C83.8447 55.0303 84.1013 54.6894 84.4347 54.4545C84.7699 54.2197 85.1705 54.1023 85.6364 54.1023C86.1023 54.1023 86.5028 54.2197 86.8381 54.4545C87.1733 54.6894 87.4299 55.0303 87.608 55.4773C87.7879 55.9242 87.8778 56.464 87.8778 57.0966C87.8778 57.733 87.7879 58.2765 87.608 58.7273C87.4299 59.1761 87.1733 59.5189 86.8381 59.7557C86.5047 59.9924 86.1042 60.1108 85.6364 60.1108ZM85.6364 59.2216C86 59.2216 86.2869 59.0426 86.4972 58.6847C86.7093 58.3248 86.8153 57.7955 86.8153 57.0966C86.8153 56.6345 86.767 56.2462 86.6705 55.9318C86.5739 55.6174 86.4375 55.3807 86.2614 55.2216C86.0852 55.0606 85.8769 54.9801 85.6364 54.9801C85.2746 54.9801 84.9886 55.16 84.7784 55.5199C84.5682 55.8778 84.4621 56.4034 84.4602 57.0966C84.4583 57.5606 84.5047 57.9508 84.5994 58.267C84.696 58.5833 84.8324 58.822 85.0085 58.983C85.1847 59.142 85.3939 59.2216 85.6364 59.2216ZM88.8331 61.6364V55.6364H89.8445V56.358H89.9041C89.9571 56.2519 90.032 56.1392 90.1286 56.0199C90.2251 55.8987 90.3558 55.7955 90.5206 55.7102C90.6854 55.6231 90.8956 55.5795 91.1513 55.5795C91.4884 55.5795 91.7924 55.6657 92.0632 55.8381C92.3359 56.0085 92.5518 56.2614 92.7109 56.5966C92.8719 56.9299 92.9524 57.339 92.9524 57.8239C92.9524 58.303 92.8738 58.7102 92.7166 59.0455C92.5594 59.3807 92.3454 59.6364 92.0746 59.8125C91.8037 59.9886 91.4969 60.0767 91.1541 60.0767C90.9041 60.0767 90.6967 60.035 90.532 59.9517C90.3672 59.8684 90.2346 59.768 90.1342 59.6506C90.0357 59.5312 89.959 59.4186 89.9041 59.3125H89.8615V61.6364H88.8331ZM89.8416 57.8182C89.8416 58.1004 89.8814 58.3475 89.9609 58.5597C90.0424 58.7718 90.1589 58.9375 90.3104 59.0568C90.4638 59.1742 90.6494 59.233 90.8672 59.233C91.0945 59.233 91.2848 59.1723 91.4382 59.0511C91.5916 58.928 91.7071 58.7604 91.7848 58.5483C91.8643 58.3343 91.9041 58.0909 91.9041 57.8182C91.9041 57.5473 91.8653 57.3068 91.7876 57.0966C91.71 56.8864 91.5945 56.7216 91.4411 56.6023C91.2876 56.483 91.0964 56.4233 90.8672 56.4233C90.6475 56.4233 90.4609 56.4811 90.3075 56.5966C90.1541 56.7121 90.0376 56.8741 89.9581 57.0824C89.8804 57.2907 89.8416 57.536 89.8416 57.8182ZM94.5099 55.6364L95.3906 57.2472L96.2855 55.6364H97.3736L96.0582 57.8182L97.3963 60H96.3139L95.3906 58.429L94.4759 60H93.3849L94.7145 57.8182L93.419 55.6364H94.5099Z" fill="#6B21A8" />
</svg>
